<svg width="16" height="19" viewBox="0 0 16 19" fill="none" xmlns="http://www.w3.org/2000/svg">
<path d="M8.70455 14.7273V13.8068C8.70455 13.1705 8.83523 12.5881 9.09659 12.0597C9.36364 11.5256 9.75 11.0994 10.2557 10.7812C10.767 10.4574 11.3864 10.2955 12.1136 10.2955C12.8523 10.2955 13.4716 10.4574 13.9716 10.7812C14.4716 11.0994 14.8494 11.5256 15.1051 12.0597C15.3608 12.5881 15.4886 13.1705 15.4886 13.8068V14.7273C15.4886 15.3636 15.358 15.9489 15.0966 16.483C14.8409 17.0114 14.4602 17.4375 13.9545 17.7614C13.4545 18.0795 12.8409 18.2386 12.1136 18.2386C11.375 18.2386 10.7528 18.0795 10.2472 17.7614C9.74148 17.4375 9.35795 17.0114 9.09659 16.483C8.83523 15.9489 8.70455 15.3636 8.70455 14.7273ZM10.4432 13.8068V14.7273C10.4432 15.2557 10.5682 15.7301 10.8182 16.1506C11.0682 16.5653 11.5 16.7727 12.1136 16.7727C12.7102 16.7727 13.1307 16.5653 13.375 16.1506C13.625 15.7301 13.75 15.2557 13.75 14.7273V13.8068C13.75 13.2784 13.6307 12.8068 13.392 12.392C13.1534 11.9716 12.7273 11.7614 12.1136 11.7614C11.517 11.7614 11.0881 11.9716 10.8267 12.392C10.571 12.8068 10.4432 13.2784 10.4432 13.8068ZM0.0113637 4.73864V3.81818C0.0113637 3.18182 0.142045 2.59943 0.403409 2.07102C0.670455 1.53693 1.05682 1.1108 1.5625 0.792614C2.07386 0.46875 2.69318 0.306818 3.42045 0.306818C4.15909 0.306818 4.77841 0.46875 5.27841 0.792614C5.77841 1.1108 6.15625 1.53693 6.41193 2.07102C6.66761 2.59943 6.79545 3.18182 6.79545 3.81818V4.73864C6.79545 5.375 6.66477 5.96023 6.40341 6.49432C6.14773 7.02273 5.76705 7.44886 5.26136 7.77273C4.76136 8.09091 4.14773 8.25 3.42045 8.25C2.68182 8.25 2.05966 8.09091 1.55398 7.77273C1.0483 7.44886 0.664773 7.02273 0.403409 6.49432C0.142045 5.96023 0.0113637 5.375 0.0113637 4.73864ZM1.75 3.81818V4.73864C1.75 5.26705 1.875 5.74148 2.125 6.16193C2.375 6.5767 2.80682 6.78409 3.42045 6.78409C4.01705 6.78409 4.4375 6.5767 4.68182 6.16193C4.93182 5.74148 5.05682 5.26705 5.05682 4.73864V3.81818C5.05682 3.28977 4.9375 2.81818 4.69886 2.40341C4.46023 1.98295 4.03409 1.77273 3.42045 1.77273C2.82386 1.77273 2.39489 1.98295 2.13352 2.40341C1.87784 2.81818 1.75 3.28977 1.75 3.81818ZM0.659091 18L12.6591 0.545454H14.6023L2.60227 18H0.659091Z" fill="white"/>
</svg>
